<?xml version="1.0" standalone="no"?>
<!DOCTYPE svg PUBLIC "-//W3C//DTD SVG 20010904//EN"
 "http://www.w3.org/TR/2001/REC-SVG-20010904/DTD/svg10.dtd">
<svg version="1.0" xmlns="http://www.w3.org/2000/svg"
 width="415.000000pt" height="415.000000pt" viewBox="0 0 415.000000 415.000000"
 preserveAspectRatio="xMidYMid meet">
<metadata>
Created by potrace 1.11, written by Peter Selinger 2001-2013
</metadata>
<g transform="translate(0.000000,415.000000) scale(0.100000,-0.100000)"
fill="#000000" stroke="none">
<path d="M1778 4015 c-2 -1 -28 -6 -58 -9 -656 -76 -1231 -485 -1520 -1081
-133 -274 -194 -545 -193 -855 0 -100 11 -259 18 -271 2 -3 7 -28 11 -55 10
-75 60 -259 94 -349 197 -509 599 -915 1103 -1114 95 -38 261 -88 319 -96 24
-4 61 -10 83 -15 107 -23 378 -33 480 -19 28 4 73 10 100 13 210 25 429 95
634 203 222 116 449 298 588 471 21 26 41 49 45 52 3 3 40 56 82 118 93 140
172 300 225 457 40 118 41 121 91 154 72 48 156 145 196 226 61 126 67 168 67
475 1 267 0 277 -22 323 -33 67 -73 83 -221 86 -63 1 -116 4 -119 6 -2 2 -18
41 -37 85 -228 559 -726 990 -1315 1140 -148 38 -313 58 -485 58 -90 0 -164
-2 -166 -3z"/>
</g>
</svg>
